<svg id="open" xmlns="http://www.w3.org/2000/svg" width="24" height="24" viewBox="0 0 24 24">
  <rect id="Rectangle_15" data-name="Rectangle 15" width="24" height="24" fill="none"/>
  <g id="_2_states" data-name="2 states">
    <g id="arrow_circle_right_24px">
      <rect id="Boundary" width="24" height="24" fill="none"/>
      <path id="Path_5" data-name="Path 5" d="M104.5,365.515l4.015-4.015-4.015-4.015-1.155,1.155,2.035,2.035h-5.005v1.65h5.005l-2.035,2.035Zm0,6.985a10.644,10.644,0,0,1-4.262-.866,11.083,11.083,0,0,1-5.871-5.871,10.988,10.988,0,0,1,0-8.552,10.992,10.992,0,0,1,2.365-3.492,11.28,11.28,0,0,1,3.506-2.351,10.988,10.988,0,0,1,8.553,0,10.983,10.983,0,0,1,5.844,5.844,10.988,10.988,0,0,1,0,8.552,11.281,11.281,0,0,1-2.351,3.506,10.992,10.992,0,0,1-3.492,2.365A10.71,10.71,0,0,1,104.5,372.5Z" transform="translate(-92.5 -349.5)"/>
    </g>
  </g>
</svg>
